<svg width="1296" height="50" viewBox="0 0 1296 50" fill="none" xmlns="http://www.w3.org/2000/svg">
<path d="M343.136 30V18.8H346.768C348.08 18.8 349.157 19.0293 350 19.488C350.853 19.9467 351.483 20.5973 351.888 21.44C352.304 22.272 352.512 23.264 352.512 24.416C352.512 25.5573 352.304 26.5493 351.888 27.392C351.483 28.224 350.853 28.8693 350 29.328C349.157 29.776 348.08 30 346.768 30H343.136ZM344.832 28.56H346.704C347.717 28.56 348.517 28.3947 349.104 28.064C349.701 27.7333 350.128 27.2587 350.384 26.64C350.651 26.0213 350.784 25.28 350.784 24.416C350.784 23.552 350.651 22.8053 350.384 22.176C350.128 21.5467 349.701 21.0667 349.104 20.736C348.517 20.3947 347.717 20.224 346.704 20.224H344.832V28.56ZM358.034 30.192C357.255 30.192 356.562 30.0213 355.954 29.68C355.357 29.328 354.887 28.8427 354.546 28.224C354.205 27.6053 354.034 26.8853 354.034 26.064C354.034 25.232 354.199 24.5013 354.53 23.872C354.871 23.2427 355.341 22.752 355.938 22.4C356.546 22.048 357.25 21.872 358.05 21.872C358.829 21.872 359.506 22.048 360.082 22.4C360.658 22.7413 361.106 23.2 361.426 23.776C361.746 24.352 361.906 24.9867 361.906 25.68C361.906 25.7867 361.901 25.904 361.89 26.032C361.89 26.1493 361.885 26.2827 361.874 26.432H355.698C355.751 27.2 356.002 27.7867 356.45 28.192C356.909 28.5867 357.437 28.784 358.034 28.784C358.514 28.784 358.914 28.6773 359.234 28.464C359.565 28.24 359.81 27.9413 359.97 27.568H361.666C361.453 28.3147 361.026 28.9387 360.386 29.44C359.757 29.9413 358.973 30.192 358.034 30.192ZM358.034 23.264C357.469 23.264 356.967 23.4347 356.53 23.776C356.093 24.1067 355.826 24.608 355.73 25.28H360.21C360.178 24.6613 359.959 24.1707 359.554 23.808C359.149 23.4453 358.642 23.264 358.034 23.264ZM363.666 30V22.064H365.17L365.314 23.184C365.57 22.7787 365.906 22.4587 366.322 22.224C366.748 21.9893 367.239 21.872 367.794 21.872C369.052 21.872 369.927 22.368 370.418 23.36C370.706 22.9013 371.09 22.5387 371.57 22.272C372.06 22.0053 372.588 21.872 373.154 21.872C374.146 21.872 374.924 22.1707 375.49 22.768C376.055 23.3653 376.338 24.256 376.338 25.44V30H374.642V25.616C374.642 24.08 374.055 23.312 372.882 23.312C372.284 23.312 371.794 23.536 371.41 23.984C371.036 24.432 370.85 25.072 370.85 25.904V30H369.154V25.616C369.154 24.08 368.562 23.312 367.378 23.312C366.791 23.312 366.306 23.536 365.922 23.984C365.548 24.432 365.362 25.072 365.362 25.904V30H363.666ZM382.034 30.192C381.277 30.192 380.594 30.0213 379.986 29.68C379.389 29.328 378.914 28.8427 378.562 28.224C378.21 27.5947 378.034 26.864 378.034 26.032C378.034 25.2 378.21 24.4747 378.562 23.856C378.925 23.2267 379.41 22.7413 380.018 22.4C380.626 22.048 381.303 21.872 382.05 21.872C382.807 21.872 383.485 22.048 384.082 22.4C384.69 22.7413 385.17 23.2267 385.522 23.856C385.885 24.4747 386.066 25.2 386.066 26.032C386.066 26.864 385.885 27.5947 385.522 28.224C385.17 28.8427 384.69 29.328 384.082 29.68C383.474 30.0213 382.791 30.192 382.034 30.192ZM382.034 28.736C382.439 28.736 382.813 28.6347 383.154 28.432C383.506 28.2293 383.789 27.9307 384.002 27.536C384.215 27.1307 384.322 26.6293 384.322 26.032C384.322 25.4347 384.215 24.9387 384.002 24.544C383.799 24.1387 383.522 23.8347 383.17 23.632C382.829 23.4293 382.455 23.328 382.05 23.328C381.645 23.328 381.266 23.4293 380.914 23.632C380.573 23.8347 380.295 24.1387 380.082 24.544C379.869 24.9387 379.762 25.4347 379.762 26.032C379.762 26.6293 379.869 27.1307 380.082 27.536C380.295 27.9307 380.573 28.2293 380.914 28.432C381.255 28.6347 381.629 28.736 382.034 28.736ZM391.068 30.192C390.065 30.192 389.239 29.9467 388.588 29.456C387.937 28.9653 387.564 28.3147 387.468 27.504H389.18C389.265 27.8667 389.468 28.1813 389.788 28.448C390.108 28.704 390.529 28.832 391.052 28.832C391.564 28.832 391.937 28.7253 392.172 28.512C392.407 28.2987 392.524 28.0533 392.524 27.776C392.524 27.3707 392.359 27.0987 392.028 26.96C391.708 26.8107 391.26 26.6773 390.684 26.56C390.236 26.464 389.788 26.336 389.34 26.176C388.903 26.016 388.535 25.792 388.236 25.504C387.948 25.2053 387.804 24.8053 387.804 24.304C387.804 23.6107 388.071 23.0347 388.604 22.576C389.137 22.1067 389.884 21.872 390.844 21.872C391.729 21.872 392.444 22.0853 392.988 22.512C393.543 22.9387 393.868 23.5413 393.964 24.32H392.332C392.279 23.9787 392.119 23.712 391.852 23.52C391.596 23.328 391.249 23.232 390.812 23.232C390.385 23.232 390.055 23.3227 389.82 23.504C389.585 23.6747 389.468 23.8987 389.468 24.176C389.468 24.4533 389.628 24.672 389.948 24.832C390.279 24.992 390.711 25.136 391.244 25.264C391.777 25.3813 392.268 25.52 392.716 25.68C393.175 25.8293 393.543 26.0533 393.82 26.352C394.097 26.6507 394.236 27.088 394.236 27.664C394.247 28.3893 393.964 28.992 393.388 29.472C392.823 29.952 392.049 30.192 391.068 30.192ZM443.807 30L447.935 18.8H449.791L453.887 30H452.095L451.135 27.264H446.559L445.599 30H443.807ZM447.039 25.92H450.655L448.847 20.816L447.039 25.92ZM459.849 30.192C459.23 30.192 458.681 30.0693 458.201 29.824C457.731 29.5787 457.358 29.232 457.081 28.784L456.905 30H455.385V18.48H457.081V23.296C457.337 22.9227 457.689 22.592 458.137 22.304C458.585 22.016 459.161 21.872 459.865 21.872C460.633 21.872 461.31 22.0533 461.897 22.416C462.483 22.7787 462.942 23.2747 463.273 23.904C463.614 24.5333 463.785 25.248 463.785 26.048C463.785 26.848 463.614 27.5627 463.273 28.192C462.942 28.8107 462.483 29.3013 461.897 29.664C461.31 30.016 460.627 30.192 459.849 30.192ZM459.561 28.72C460.286 28.72 460.883 28.4747 461.353 27.984C461.822 27.4827 462.057 26.832 462.057 26.032C462.057 25.5093 461.95 25.0453 461.737 24.64C461.523 24.2347 461.23 23.92 460.857 23.696C460.483 23.4613 460.051 23.344 459.561 23.344C458.835 23.344 458.238 23.5947 457.769 24.096C457.31 24.5973 457.081 25.2427 457.081 26.032C457.081 26.832 457.31 27.4827 457.769 27.984C458.238 28.4747 458.835 28.72 459.561 28.72ZM469.331 30.192C468.574 30.192 467.891 30.0213 467.283 29.68C466.686 29.328 466.211 28.8427 465.859 28.224C465.507 27.5947 465.331 26.864 465.331 26.032C465.331 25.2 465.507 24.4747 465.859 23.856C466.222 23.2267 466.707 22.7413 467.315 22.4C467.923 22.048 468.6 21.872 469.347 21.872C470.104 21.872 470.782 22.048 471.379 22.4C471.987 22.7413 472.467 23.2267 472.819 23.856C473.182 24.4747 473.363 25.2 473.363 26.032C473.363 26.864 473.182 27.5947 472.819 28.224C472.467 28.8427 471.987 29.328 471.379 29.68C470.771 30.0213 470.088 30.192 469.331 30.192ZM469.331 28.736C469.736 28.736 470.11 28.6347 470.451 28.432C470.803 28.2293 471.086 27.9307 471.299 27.536C471.512 27.1307 471.619 26.6293 471.619 26.032C471.619 25.4347 471.512 24.9387 471.299 24.544C471.096 24.1387 470.819 23.8347 470.467 23.632C470.126 23.4293 469.752 23.328 469.347 23.328C468.942 23.328 468.563 23.4293 468.211 23.632C467.87 23.8347 467.592 24.1387 467.379 24.544C467.166 24.9387 467.059 25.4347 467.059 26.032C467.059 26.6293 467.166 27.1307 467.379 27.536C467.592 27.9307 467.87 28.2293 468.211 28.432C468.552 28.6347 468.926 28.736 469.331 28.736ZM482.493 22.064V30H480.989L480.861 28.608C480.616 29.0987 480.253 29.488 479.773 29.776C479.304 30.0533 478.76 30.192 478.141 30.192C477.181 30.192 476.424 29.8933 475.869 29.296C475.325 28.6987 475.053 27.808 475.053 26.624V22.064H476.733V26.448C476.733 27.984 477.362 28.752 478.621 28.752C479.25 28.752 479.768 28.528 480.173 28.08C480.589 27.632 480.797 26.992 480.797 26.16V22.064H482.493ZM487.963 30C487.184 30 486.565 29.8133 486.107 29.44C485.648 29.056 485.419 28.3787 485.419 27.408V23.488H484.059V22.064H485.419L485.627 20.048H487.115V22.064H489.355V23.488H487.115V27.408C487.115 27.8453 487.205 28.1493 487.387 28.32C487.579 28.48 487.904 28.56 488.363 28.56H489.275V30H487.963ZM539.542 30V18.8H543.766C544.929 18.8 545.809 19.072 546.406 19.616C547.004 20.16 547.302 20.8427 547.302 21.664C547.302 22.3787 547.11 22.9493 546.726 23.376C546.342 23.792 545.878 24.0747 545.334 24.224C545.761 24.3093 546.14 24.48 546.47 24.736C546.812 24.992 547.078 25.312 547.27 25.696C547.462 26.08 547.558 26.496 547.558 26.944C547.558 27.52 547.414 28.0427 547.126 28.512C546.849 28.9707 546.438 29.3333 545.894 29.6C545.35 29.8667 544.684 30 543.894 30H539.542ZM541.238 23.6H543.558C544.209 23.6 544.705 23.4507 545.046 23.152C545.388 22.8427 545.558 22.4213 545.558 21.888C545.558 21.3653 545.388 20.9493 545.046 20.64C544.716 20.3307 544.209 20.176 543.526 20.176H541.238V23.6ZM541.238 28.608H543.67C544.353 28.608 544.881 28.448 545.254 28.128C545.638 27.808 545.83 27.36 545.83 26.784C545.83 26.208 545.633 25.7547 545.238 25.424C544.844 25.0827 544.31 24.912 543.638 24.912H541.238V28.608ZM549.353 30V18.48H551.049V30H549.353ZM556.909 30.192C556.152 30.192 555.469 30.0213 554.861 29.68C554.264 29.328 553.789 28.8427 553.437 28.224C553.085 27.5947 552.909 26.864 552.909 26.032C552.909 25.2 553.085 24.4747 553.437 23.856C553.8 23.2267 554.285 22.7413 554.893 22.4C555.501 22.048 556.178 21.872 556.925 21.872C557.682 21.872 558.36 22.048 558.957 22.4C559.565 22.7413 560.045 23.2267 560.397 23.856C560.76 24.4747 560.941 25.2 560.941 26.032C560.941 26.864 560.76 27.5947 560.397 28.224C560.045 28.8427 559.565 29.328 558.957 29.68C558.349 30.0213 557.666 30.192 556.909 30.192ZM556.909 28.736C557.314 28.736 557.688 28.6347 558.029 28.432C558.381 28.2293 558.664 27.9307 558.877 27.536C559.09 27.1307 559.197 26.6293 559.197 26.032C559.197 25.4347 559.09 24.9387 558.877 24.544C558.674 24.1387 558.397 23.8347 558.045 23.632C557.704 23.4293 557.33 23.328 556.925 23.328C556.52 23.328 556.141 23.4293 555.789 23.632C555.448 23.8347 555.17 24.1387 554.957 24.544C554.744 24.9387 554.637 25.4347 554.637 26.032C554.637 26.6293 554.744 27.1307 554.957 27.536C555.17 27.9307 555.448 28.2293 555.789 28.432C556.13 28.6347 556.504 28.736 556.909 28.736ZM565.601 27.568C565.185 27.568 564.801 27.52 564.449 27.424L563.761 28.096C563.879 28.1707 564.023 28.2347 564.193 28.288C564.364 28.3413 564.604 28.3893 564.913 28.432C565.223 28.4747 565.644 28.5173 566.177 28.56C567.233 28.656 567.996 28.912 568.465 29.328C568.935 29.7333 569.169 30.2773 569.169 30.96C569.169 31.4293 569.041 31.872 568.785 32.288C568.54 32.7147 568.151 33.056 567.617 33.312C567.095 33.5787 566.423 33.712 565.601 33.712C564.492 33.712 563.591 33.4987 562.897 33.072C562.215 32.656 561.873 32.0213 561.873 31.168C561.873 30.8373 561.959 30.5067 562.129 30.176C562.311 29.856 562.593 29.552 562.977 29.264C562.753 29.168 562.556 29.0667 562.385 28.96C562.225 28.8427 562.081 28.7253 561.953 28.608V28.224L563.329 26.816C562.711 26.2827 562.401 25.584 562.401 24.72C562.401 24.1973 562.524 23.7227 562.769 23.296C563.025 22.8587 563.393 22.512 563.873 22.256C564.353 22 564.929 21.872 565.601 21.872C566.049 21.872 566.465 21.936 566.849 22.064H569.809V23.184L568.401 23.264C568.657 23.7013 568.785 24.1867 568.785 24.72C568.785 25.2533 568.657 25.7333 568.401 26.16C568.156 26.5867 567.793 26.928 567.313 27.184C566.844 27.44 566.273 27.568 565.601 27.568ZM565.601 26.24C566.092 26.24 566.487 26.112 566.785 25.856C567.095 25.5893 567.249 25.216 567.249 24.736C567.249 24.2453 567.095 23.872 566.785 23.616C566.487 23.36 566.092 23.232 565.601 23.232C565.1 23.232 564.695 23.36 564.385 23.616C564.087 23.872 563.937 24.2453 563.937 24.736C563.937 25.216 564.087 25.5893 564.385 25.856C564.695 26.112 565.1 26.24 565.601 26.24ZM563.473 31.008C563.473 31.4667 563.676 31.808 564.081 32.032C564.487 32.2667 564.993 32.384 565.601 32.384C566.188 32.384 566.663 32.256 567.025 32C567.388 31.7547 567.569 31.424 567.569 31.008C567.569 30.6987 567.447 30.432 567.201 30.208C566.956 29.9947 566.492 29.8613 565.809 29.808C565.297 29.776 564.844 29.728 564.449 29.664C564.076 29.8667 563.82 30.0853 563.681 30.32C563.543 30.5547 563.473 30.784 563.473 31.008ZM619.761 30V18.8H623.681C624.556 18.8 625.281 18.9493 625.857 19.248C626.433 19.536 626.86 19.936 627.137 20.448C627.425 20.9493 627.569 21.52 627.569 22.16C627.569 22.768 627.43 23.328 627.153 23.84C626.886 24.3413 626.465 24.7413 625.889 25.04C625.313 25.3387 624.577 25.488 623.681 25.488H621.457V30H619.761ZM621.457 24.096H623.601C624.401 24.096 624.972 23.9253 625.313 23.584C625.665 23.232 625.841 22.7573 625.841 22.16C625.841 21.5413 625.665 21.0613 625.313 20.72C624.972 20.368 624.401 20.192 623.601 20.192H621.457V24.096ZM631.432 30.192C630.76 30.192 630.205 30.08 629.768 29.856C629.331 29.632 629.005 29.3387 628.792 28.976C628.579 28.6027 628.472 28.1973 628.472 27.76C628.472 26.992 628.771 26.384 629.368 25.936C629.965 25.488 630.819 25.264 631.928 25.264H634.008V25.12C634.008 24.5013 633.837 24.0373 633.496 23.728C633.165 23.4187 632.733 23.264 632.2 23.264C631.731 23.264 631.32 23.3813 630.968 23.616C630.627 23.84 630.419 24.176 630.344 24.624H628.648C628.701 24.048 628.893 23.5573 629.224 23.152C629.565 22.736 629.992 22.4213 630.504 22.208C631.027 21.984 631.597 21.872 632.216 21.872C633.325 21.872 634.184 22.1653 634.792 22.752C635.4 23.328 635.704 24.1173 635.704 25.12V30H634.232L634.088 28.64C633.864 29.0773 633.539 29.4453 633.112 29.744C632.685 30.0427 632.125 30.192 631.432 30.192ZM631.768 28.816C632.227 28.816 632.611 28.7093 632.92 28.496C633.24 28.272 633.485 27.9787 633.656 27.616C633.837 27.2533 633.949 26.8533 633.992 26.416H632.104C631.432 26.416 630.952 26.5333 630.664 26.768C630.387 27.0027 630.248 27.296 630.248 27.648C630.248 28.0107 630.381 28.2987 630.648 28.512C630.925 28.7147 631.299 28.816 631.768 28.816ZM640.929 27.568C640.513 27.568 640.129 27.52 639.777 27.424L639.089 28.096C639.207 28.1707 639.351 28.2347 639.521 28.288C639.692 28.3413 639.932 28.3893 640.241 28.432C640.551 28.4747 640.972 28.5173 641.505 28.56C642.561 28.656 643.324 28.912 643.793 29.328C644.263 29.7333 644.497 30.2773 644.497 30.96C644.497 31.4293 644.369 31.872 644.113 32.288C643.868 32.7147 643.479 33.056 642.945 33.312C642.423 33.5787 641.751 33.712 640.929 33.712C639.82 33.712 638.919 33.4987 638.225 33.072C637.543 32.656 637.201 32.0213 637.201 31.168C637.201 30.8373 637.287 30.5067 637.457 30.176C637.639 29.856 637.921 29.552 638.305 29.264C638.081 29.168 637.884 29.0667 637.713 28.96C637.553 28.8427 637.409 28.7253 637.281 28.608V28.224L638.657 26.816C638.039 26.2827 637.729 25.584 637.729 24.72C637.729 24.1973 637.852 23.7227 638.097 23.296C638.353 22.8587 638.721 22.512 639.201 22.256C639.681 22 640.257 21.872 640.929 21.872C641.377 21.872 641.793 21.936 642.177 22.064H645.137V23.184L643.729 23.264C643.985 23.7013 644.113 24.1867 644.113 24.72C644.113 25.2533 643.985 25.7333 643.729 26.16C643.484 26.5867 643.121 26.928 642.641 27.184C642.172 27.44 641.601 27.568 640.929 27.568ZM640.929 26.24C641.42 26.24 641.815 26.112 642.113 25.856C642.423 25.5893 642.577 25.216 642.577 24.736C642.577 24.2453 642.423 23.872 642.113 23.616C641.815 23.36 641.42 23.232 640.929 23.232C640.428 23.232 640.023 23.36 639.713 23.616C639.415 23.872 639.265 24.2453 639.265 24.736C639.265 25.216 639.415 25.5893 639.713 25.856C640.023 26.112 640.428 26.24 640.929 26.24ZM638.801 31.008C638.801 31.4667 639.004 31.808 639.409 32.032C639.815 32.2667 640.321 32.384 640.929 32.384C641.516 32.384 641.991 32.256 642.353 32C642.716 31.7547 642.897 31.424 642.897 31.008C642.897 30.6987 642.775 30.432 642.529 30.208C642.284 29.9947 641.82 29.8613 641.137 29.808C640.625 29.776 640.172 29.728 639.777 29.664C639.404 29.8667 639.148 30.0853 639.009 30.32C638.871 30.5547 638.801 30.784 638.801 31.008ZM650.05 30.192C649.271 30.192 648.578 30.0213 647.97 29.68C647.372 29.328 646.903 28.8427 646.562 28.224C646.22 27.6053 646.05 26.8853 646.05 26.064C646.05 25.232 646.215 24.5013 646.546 23.872C646.887 23.2427 647.356 22.752 647.954 22.4C648.562 22.048 649.266 21.872 650.066 21.872C650.844 21.872 651.522 22.048 652.098 22.4C652.674 22.7413 653.122 23.2 653.442 23.776C653.762 24.352 653.922 24.9867 653.922 25.68C653.922 25.7867 653.916 25.904 653.906 26.032C653.906 26.1493 653.9 26.2827 653.89 26.432H647.714C647.767 27.2 648.018 27.7867 648.466 28.192C648.924 28.5867 649.452 28.784 650.05 28.784C650.53 28.784 650.93 28.6773 651.25 28.464C651.58 28.24 651.826 27.9413 651.986 27.568H653.682C653.468 28.3147 653.042 28.9387 652.402 29.44C651.772 29.9413 650.988 30.192 650.05 30.192ZM650.05 23.264C649.484 23.264 648.983 23.4347 648.546 23.776C648.108 24.1067 647.842 24.608 647.746 25.28H652.226C652.194 24.6613 651.975 24.1707 651.57 23.808C651.164 23.4453 650.658 23.264 650.05 23.264ZM658.849 30.192C657.847 30.192 657.02 29.9467 656.369 29.456C655.719 28.9653 655.345 28.3147 655.249 27.504H656.961C657.047 27.8667 657.249 28.1813 657.569 28.448C657.889 28.704 658.311 28.832 658.833 28.832C659.345 28.832 659.719 28.7253 659.953 28.512C660.188 28.2987 660.305 28.0533 660.305 27.776C660.305 27.3707 660.14 27.0987 659.809 26.96C659.489 26.8107 659.041 26.6773 658.465 26.56C658.017 26.464 657.569 26.336 657.121 26.176C656.684 26.016 656.316 25.792 656.017 25.504C655.729 25.2053 655.585 24.8053 655.585 24.304C655.585 23.6107 655.852 23.0347 656.385 22.576C656.919 22.1067 657.665 21.872 658.625 21.872C659.511 21.872 660.225 22.0853 660.769 22.512C661.324 22.9387 661.649 23.5413 661.745 24.32H660.113C660.06 23.9787 659.9 23.712 659.633 23.52C659.377 23.328 659.031 23.232 658.593 23.232C658.167 23.232 657.836 23.3227 657.601 23.504C657.367 23.6747 657.249 23.8987 657.249 24.176C657.249 24.4533 657.409 24.672 657.729 24.832C658.06 24.992 658.492 25.136 659.025 25.264C659.559 25.3813 660.049 25.52 660.497 25.68C660.956 25.8293 661.324 26.0533 661.601 26.352C661.879 26.6507 662.017 27.088 662.017 27.664C662.028 28.3893 661.745 28.992 661.169 29.472C660.604 29.952 659.831 30.192 658.849 30.192ZM717.3 30.192C716.191 30.192 715.231 29.952 714.42 29.472C713.62 28.9813 713.001 28.304 712.564 27.44C712.127 26.5653 711.908 25.5573 711.908 24.416C711.908 23.264 712.127 22.256 712.564 21.392C713.001 20.5173 713.62 19.8347 714.42 19.344C715.231 18.8533 716.191 18.608 717.3 18.608C718.612 18.608 719.684 18.928 720.516 19.568C721.348 20.208 721.876 21.104 722.1 22.256H720.212C720.063 21.6053 719.743 21.088 719.252 20.704C718.761 20.32 718.105 20.128 717.284 20.128C716.164 20.128 715.279 20.512 714.628 21.28C713.977 22.0373 713.652 23.0827 713.652 24.416C713.652 25.7387 713.977 26.7787 714.628 27.536C715.279 28.2933 716.164 28.672 717.284 28.672C718.105 28.672 718.761 28.4907 719.252 28.128C719.743 27.7653 720.063 27.2693 720.212 26.64H722.1C721.876 27.7493 721.348 28.6187 720.516 29.248C719.684 29.8773 718.612 30.192 717.3 30.192ZM727.612 30.192C726.855 30.192 726.172 30.0213 725.564 29.68C724.967 29.328 724.492 28.8427 724.14 28.224C723.788 27.5947 723.612 26.864 723.612 26.032C723.612 25.2 723.788 24.4747 724.14 23.856C724.503 23.2267 724.988 22.7413 725.596 22.4C726.204 22.048 726.881 21.872 727.628 21.872C728.385 21.872 729.063 22.048 729.66 22.4C730.268 22.7413 730.748 23.2267 731.1 23.856C731.463 24.4747 731.644 25.2 731.644 26.032C731.644 26.864 731.463 27.5947 731.1 28.224C730.748 28.8427 730.268 29.328 729.66 29.68C729.052 30.0213 728.369 30.192 727.612 30.192ZM727.612 28.736C728.017 28.736 728.391 28.6347 728.732 28.432C729.084 28.2293 729.367 27.9307 729.58 27.536C729.793 27.1307 729.9 26.6293 729.9 26.032C729.9 25.4347 729.793 24.9387 729.58 24.544C729.377 24.1387 729.1 23.8347 728.748 23.632C728.407 23.4293 728.033 23.328 727.628 23.328C727.223 23.328 726.844 23.4293 726.492 23.632C726.151 23.8347 725.873 24.1387 725.66 24.544C725.447 24.9387 725.34 25.4347 725.34 26.032C725.34 26.6293 725.447 27.1307 725.66 27.536C725.873 27.9307 726.151 28.2293 726.492 28.432C726.833 28.6347 727.207 28.736 727.612 28.736ZM733.478 30V22.064H734.982L735.11 23.456C735.356 22.9653 735.713 22.5813 736.182 22.304C736.662 22.016 737.212 21.872 737.83 21.872C738.79 21.872 739.542 22.1707 740.086 22.768C740.641 23.3653 740.918 24.256 740.918 25.44V30H739.238V25.616C739.238 24.08 738.609 23.312 737.35 23.312C736.721 23.312 736.198 23.536 735.782 23.984C735.377 24.432 735.174 25.072 735.174 25.904V30H733.478ZM746.244 30C745.465 30 744.846 29.8133 744.388 29.44C743.929 29.056 743.7 28.3787 743.7 27.408V23.488H742.34V22.064H743.7L743.908 20.048H745.396V22.064H747.636V23.488H745.396V27.408C745.396 27.8453 745.486 28.1493 745.668 28.32C745.86 28.48 746.185 28.56 746.644 28.56H747.556V30H746.244ZM752.073 30.192C751.401 30.192 750.846 30.08 750.409 29.856C749.971 29.632 749.646 29.3387 749.433 28.976C749.219 28.6027 749.113 28.1973 749.113 27.76C749.113 26.992 749.411 26.384 750.009 25.936C750.606 25.488 751.459 25.264 752.569 25.264H754.649V25.12C754.649 24.5013 754.478 24.0373 754.137 23.728C753.806 23.4187 753.374 23.264 752.841 23.264C752.371 23.264 751.961 23.3813 751.609 23.616C751.267 23.84 751.059 24.176 750.985 24.624H749.289C749.342 24.048 749.534 23.5573 749.865 23.152C750.206 22.736 750.633 22.4213 751.145 22.208C751.667 21.984 752.238 21.872 752.857 21.872C753.966 21.872 754.825 22.1653 755.433 22.752C756.041 23.328 756.345 24.1173 756.345 25.12V30H754.873L754.729 28.64C754.505 29.0773 754.179 29.4453 753.753 29.744C753.326 30.0427 752.766 30.192 752.073 30.192ZM752.409 28.816C752.867 28.816 753.251 28.7093 753.561 28.496C753.881 28.272 754.126 27.9787 754.297 27.616C754.478 27.2533 754.59 26.8533 754.633 26.416H752.745C752.073 26.416 751.593 26.5333 751.305 26.768C751.027 27.0027 750.889 27.296 750.889 27.648C750.889 28.0107 751.022 28.2987 751.289 28.512C751.566 28.7147 751.939 28.816 752.409 28.816ZM762.082 30.192C761.303 30.192 760.605 30.016 759.986 29.664C759.378 29.312 758.898 28.8267 758.546 28.208C758.205 27.5787 758.034 26.8533 758.034 26.032C758.034 25.2107 758.205 24.4907 758.546 23.872C758.898 23.2427 759.378 22.752 759.986 22.4C760.605 22.048 761.303 21.872 762.082 21.872C763.063 21.872 763.885 22.128 764.546 22.64C765.218 23.152 765.65 23.8453 765.842 24.72H764.066C763.959 24.2827 763.725 23.9413 763.362 23.696C762.999 23.4507 762.573 23.328 762.082 23.328C761.666 23.328 761.282 23.4347 760.93 23.648C760.578 23.8507 760.295 24.1547 760.082 24.56C759.869 24.9547 759.762 25.4453 759.762 26.032C759.762 26.6187 759.869 27.1147 760.082 27.52C760.295 27.9147 760.578 28.2187 760.93 28.432C761.282 28.6453 761.666 28.752 762.082 28.752C762.573 28.752 762.999 28.6293 763.362 28.384C763.725 28.1387 763.959 27.792 764.066 27.344H765.842C765.661 28.1973 765.234 28.8853 764.562 29.408C763.89 29.9307 763.063 30.192 762.082 30.192ZM770.853 30C770.074 30 769.456 29.8133 768.997 29.44C768.538 29.056 768.309 28.3787 768.309 27.408V23.488H766.949V22.064H768.309L768.517 20.048H770.005V22.064H772.245V23.488H770.005V27.408C770.005 27.8453 770.096 28.1493 770.277 28.32C770.469 28.48 770.794 28.56 771.253 28.56H772.165V30H770.853Z" fill="#1B1C20"/>
<g clip-path="url(#clip0_5805_1812)">
<path d="M1056.14 30V18.8H1057.83V28.656H1062.92V30H1056.14ZM1068.05 30.192C1067.29 30.192 1066.61 30.0213 1066 29.68C1065.4 29.328 1064.93 28.8427 1064.58 28.224C1064.23 27.5947 1064.05 26.864 1064.05 26.032C1064.05 25.2 1064.23 24.4747 1064.58 23.856C1064.94 23.2267 1065.43 22.7413 1066.03 22.4C1066.64 22.048 1067.32 21.872 1068.07 21.872C1068.82 21.872 1069.5 22.048 1070.1 22.4C1070.71 22.7413 1071.19 23.2267 1071.54 23.856C1071.9 24.4747 1072.08 25.2 1072.08 26.032C1072.08 26.864 1071.9 27.5947 1071.54 28.224C1071.19 28.8427 1070.71 29.328 1070.1 29.68C1069.49 30.0213 1068.81 30.192 1068.05 30.192ZM1068.05 28.736C1068.45 28.736 1068.83 28.6347 1069.17 28.432C1069.52 28.2293 1069.8 27.9307 1070.02 27.536C1070.23 27.1307 1070.34 26.6293 1070.34 26.032C1070.34 25.4347 1070.23 24.9387 1070.02 24.544C1069.81 24.1387 1069.54 23.8347 1069.19 23.632C1068.84 23.4293 1068.47 23.328 1068.07 23.328C1067.66 23.328 1067.28 23.4293 1066.93 23.632C1066.59 23.8347 1066.31 24.1387 1066.1 24.544C1065.88 24.9387 1065.78 25.4347 1065.78 26.032C1065.78 26.6293 1065.88 27.1307 1066.1 27.536C1066.31 27.9307 1066.59 28.2293 1066.93 28.432C1067.27 28.6347 1067.64 28.736 1068.05 28.736ZM1076.74 27.568C1076.33 27.568 1075.94 27.52 1075.59 27.424L1074.9 28.096C1075.02 28.1707 1075.16 28.2347 1075.33 28.288C1075.5 28.3413 1075.74 28.3893 1076.05 28.432C1076.36 28.4747 1076.78 28.5173 1077.32 28.56C1078.37 28.656 1079.14 28.912 1079.61 29.328C1080.08 29.7333 1080.31 30.2773 1080.31 30.96C1080.31 31.4293 1080.18 31.872 1079.93 32.288C1079.68 32.7147 1079.29 33.056 1078.76 33.312C1078.24 33.5787 1077.56 33.712 1076.74 33.712C1075.63 33.712 1074.73 33.4987 1074.04 33.072C1073.36 32.656 1073.01 32.0213 1073.01 31.168C1073.01 30.8373 1073.1 30.5067 1073.27 30.176C1073.45 29.856 1073.73 29.552 1074.12 29.264C1073.89 29.168 1073.7 29.0667 1073.53 28.96C1073.37 28.8427 1073.22 28.7253 1073.09 28.608V28.224L1074.47 26.816C1073.85 26.2827 1073.54 25.584 1073.54 24.72C1073.54 24.1973 1073.66 23.7227 1073.91 23.296C1074.17 22.8587 1074.53 22.512 1075.01 22.256C1075.49 22 1076.07 21.872 1076.74 21.872C1077.19 21.872 1077.61 21.936 1077.99 22.064H1080.95V23.184L1079.54 23.264C1079.8 23.7013 1079.93 24.1867 1079.93 24.72C1079.93 25.2533 1079.8 25.7333 1079.54 26.16C1079.3 26.5867 1078.93 26.928 1078.45 27.184C1077.98 27.44 1077.41 27.568 1076.74 27.568ZM1076.74 26.24C1077.23 26.24 1077.63 26.112 1077.93 25.856C1078.24 25.5893 1078.39 25.216 1078.39 24.736C1078.39 24.2453 1078.24 23.872 1077.93 23.616C1077.63 23.36 1077.23 23.232 1076.74 23.232C1076.24 23.232 1075.84 23.36 1075.53 23.616C1075.23 23.872 1075.08 24.2453 1075.08 24.736C1075.08 25.216 1075.23 25.5893 1075.53 25.856C1075.84 26.112 1076.24 26.24 1076.74 26.24ZM1074.61 31.008C1074.61 31.4667 1074.82 31.808 1075.22 32.032C1075.63 32.2667 1076.13 32.384 1076.74 32.384C1077.33 32.384 1077.8 32.256 1078.17 32C1078.53 31.7547 1078.71 31.424 1078.71 31.008C1078.71 30.6987 1078.59 30.432 1078.34 30.208C1078.1 29.9947 1077.63 29.8613 1076.95 29.808C1076.44 29.776 1075.98 29.728 1075.59 29.664C1075.22 29.8667 1074.96 30.0853 1074.82 30.32C1074.68 30.5547 1074.61 30.784 1074.61 31.008ZM1083.42 20.56C1083.1 20.56 1082.84 20.464 1082.62 20.272C1082.42 20.0693 1082.32 19.8187 1082.32 19.52C1082.32 19.2213 1082.42 18.976 1082.62 18.784C1082.84 18.5813 1083.1 18.48 1083.42 18.48C1083.74 18.48 1084 18.5813 1084.21 18.784C1084.42 18.976 1084.53 19.2213 1084.53 19.52C1084.53 19.8187 1084.42 20.0693 1084.21 20.272C1084 20.464 1083.74 20.56 1083.42 20.56ZM1082.57 30V22.064H1084.27V30H1082.57ZM1086.51 30V22.064H1088.01L1088.14 23.456C1088.39 22.9653 1088.74 22.5813 1089.21 22.304C1089.69 22.016 1090.24 21.872 1090.86 21.872C1091.82 21.872 1092.57 22.1707 1093.12 22.768C1093.67 23.3653 1093.95 24.256 1093.95 25.44V30H1092.27V25.616C1092.27 24.08 1091.64 23.312 1090.38 23.312C1089.75 23.312 1089.23 23.536 1088.81 23.984C1088.41 24.432 1088.21 25.072 1088.21 25.904V30H1086.51Z" fill="#1B1C20"/>
<g clip-path="url(#clip1_5805_1812)">
<rect x="1129" width="167" height="50" rx="8" fill="#9747FF"/>
<path d="M1156.13 30.192C1155.07 30.192 1154.15 29.952 1153.36 29.472C1152.57 28.992 1151.95 28.32 1151.52 27.456C1151.08 26.592 1150.86 25.584 1150.86 24.432C1150.86 23.2907 1151.09 22.2827 1151.53 21.408C1151.98 20.5333 1152.62 19.8507 1153.44 19.36C1154.27 18.8587 1155.25 18.608 1156.38 18.608C1157.66 18.608 1158.73 18.9173 1159.58 19.536C1160.43 20.1547 1160.99 21.008 1161.25 22.096H1159.33C1159.15 21.4987 1158.82 21.0293 1158.32 20.688C1157.82 20.3467 1157.17 20.176 1156.38 20.176C1155.21 20.176 1154.29 20.5547 1153.61 21.312C1152.94 22.0693 1152.61 23.1147 1152.61 24.448C1152.61 25.7813 1152.94 26.8213 1153.6 27.568C1154.26 28.3147 1155.14 28.688 1156.24 28.688C1157.35 28.688 1158.18 28.3733 1158.73 27.744C1159.3 27.1147 1159.63 26.2773 1159.73 25.232H1156.69V23.92H1161.44V30H1159.89L1159.74 28.352C1159.37 28.9387 1158.9 29.392 1158.33 29.712C1157.77 30.032 1157.03 30.192 1156.13 30.192ZM1167.14 30.192C1166.36 30.192 1165.67 30.0213 1165.06 29.68C1164.47 29.328 1164 28.8427 1163.66 28.224C1163.31 27.6053 1163.14 26.8853 1163.14 26.064C1163.14 25.232 1163.31 24.5013 1163.64 23.872C1163.98 23.2427 1164.45 22.752 1165.05 22.4C1165.66 22.048 1166.36 21.872 1167.16 21.872C1167.94 21.872 1168.62 22.048 1169.19 22.4C1169.77 22.7413 1170.22 23.2 1170.54 23.776C1170.86 24.352 1171.02 24.9867 1171.02 25.68C1171.02 25.7867 1171.01 25.904 1171 26.032C1171 26.1493 1170.99 26.2827 1170.98 26.432H1164.81C1164.86 27.2 1165.11 27.7867 1165.56 28.192C1166.02 28.5867 1166.55 28.784 1167.14 28.784C1167.62 28.784 1168.02 28.6773 1168.34 28.464C1168.67 28.24 1168.92 27.9413 1169.08 27.568H1170.78C1170.56 28.3147 1170.14 28.9387 1169.5 29.44C1168.87 29.9413 1168.08 30.192 1167.14 30.192ZM1167.14 23.264C1166.58 23.264 1166.08 23.4347 1165.64 23.776C1165.2 24.1067 1164.94 24.608 1164.84 25.28H1169.32C1169.29 24.6613 1169.07 24.1707 1168.66 23.808C1168.26 23.4453 1167.75 23.264 1167.14 23.264ZM1175.9 30C1175.12 30 1174.5 29.8133 1174.04 29.44C1173.59 29.056 1173.36 28.3787 1173.36 27.408V23.488H1172V22.064H1173.36L1173.56 20.048H1175.05V22.064H1177.29V23.488H1175.05V27.408C1175.05 27.8453 1175.14 28.1493 1175.32 28.32C1175.52 28.48 1175.84 28.56 1176.3 28.56H1177.21V30H1175.9ZM1186.83 30.192C1186.01 30.192 1185.29 30.048 1184.67 29.76C1184.05 29.472 1183.57 29.0613 1183.22 28.528C1182.87 27.9947 1182.7 27.36 1182.69 26.624H1184.48C1184.49 27.2213 1184.7 27.728 1185.1 28.144C1185.51 28.56 1186.08 28.768 1186.82 28.768C1187.47 28.768 1187.97 28.6133 1188.34 28.304C1188.71 27.984 1188.9 27.5787 1188.9 27.088C1188.9 26.6933 1188.81 26.3733 1188.62 26.128C1188.45 25.8827 1188.21 25.68 1187.9 25.52C1187.61 25.36 1187.26 25.216 1186.86 25.088C1186.47 24.96 1186.05 24.8213 1185.62 24.672C1184.75 24.384 1184.1 24.0107 1183.66 23.552C1183.24 23.0933 1183.02 22.4907 1183.02 21.744C1183.01 21.1147 1183.16 20.5653 1183.46 20.096C1183.77 19.6267 1184.19 19.264 1184.74 19.008C1185.29 18.7413 1185.94 18.608 1186.67 18.608C1187.4 18.608 1188.03 18.7413 1188.58 19.008C1189.13 19.2747 1189.56 19.648 1189.87 20.128C1190.18 20.5973 1190.34 21.1467 1190.35 21.776H1188.56C1188.56 21.488 1188.49 21.216 1188.34 20.96C1188.19 20.6933 1187.97 20.4747 1187.68 20.304C1187.39 20.1333 1187.04 20.048 1186.62 20.048C1186.09 20.0373 1185.65 20.1707 1185.3 20.448C1184.95 20.7253 1184.78 21.1093 1184.78 21.6C1184.78 22.0373 1184.91 22.3733 1185.17 22.608C1185.42 22.8427 1185.78 23.04 1186.22 23.2C1186.67 23.3493 1187.18 23.5253 1187.76 23.728C1188.31 23.9093 1188.81 24.128 1189.25 24.384C1189.69 24.64 1190.03 24.976 1190.29 25.392C1190.55 25.808 1190.69 26.336 1190.69 26.976C1190.69 27.5413 1190.54 28.0693 1190.26 28.56C1189.97 29.04 1189.54 29.4347 1188.96 29.744C1188.38 30.0427 1187.67 30.192 1186.83 30.192ZM1195.81 30C1195.03 30 1194.41 29.8133 1193.95 29.44C1193.49 29.056 1193.26 28.3787 1193.26 27.408V23.488H1191.9V22.064H1193.26L1193.47 20.048H1194.96V22.064H1197.2V23.488H1194.96V27.408C1194.96 27.8453 1195.05 28.1493 1195.23 28.32C1195.42 28.48 1195.75 28.56 1196.21 28.56H1197.12V30H1195.81ZM1201.64 30.192C1200.96 30.192 1200.41 30.08 1199.97 29.856C1199.53 29.632 1199.21 29.3387 1199 28.976C1198.78 28.6027 1198.68 28.1973 1198.68 27.76C1198.68 26.992 1198.97 26.384 1199.57 25.936C1200.17 25.488 1201.02 25.264 1202.13 25.264H1204.21V25.12C1204.21 24.5013 1204.04 24.0373 1203.7 23.728C1203.37 23.4187 1202.94 23.264 1202.4 23.264C1201.93 23.264 1201.52 23.3813 1201.17 23.616C1200.83 23.84 1200.62 24.176 1200.55 24.624H1198.85C1198.9 24.048 1199.1 23.5573 1199.43 23.152C1199.77 22.736 1200.2 22.4213 1200.71 22.208C1201.23 21.984 1201.8 21.872 1202.42 21.872C1203.53 21.872 1204.39 22.1653 1205 22.752C1205.6 23.328 1205.91 24.1173 1205.91 25.12V30H1204.44L1204.29 28.64C1204.07 29.0773 1203.74 29.4453 1203.32 29.744C1202.89 30.0427 1202.33 30.192 1201.64 30.192ZM1201.97 28.816C1202.43 28.816 1202.81 28.7093 1203.12 28.496C1203.44 28.272 1203.69 27.9787 1203.86 27.616C1204.04 27.2533 1204.15 26.8533 1204.2 26.416H1202.31C1201.64 26.416 1201.16 26.5333 1200.87 26.768C1200.59 27.0027 1200.45 27.296 1200.45 27.648C1200.45 28.0107 1200.58 28.2987 1200.85 28.512C1201.13 28.7147 1201.5 28.816 1201.97 28.816ZM1207.88 30V22.064H1209.4L1209.55 23.568C1209.83 23.0453 1210.21 22.6347 1210.7 22.336C1211.2 22.0267 1211.8 21.872 1212.51 21.872V23.648H1212.04C1211.58 23.648 1211.15 23.728 1210.78 23.888C1210.42 24.0373 1210.12 24.2987 1209.9 24.672C1209.69 25.0347 1209.58 25.5413 1209.58 26.192V30H1207.88ZM1217.29 30C1216.51 30 1215.89 29.8133 1215.43 29.44C1214.98 29.056 1214.75 28.3787 1214.75 27.408V23.488H1213.39V22.064H1214.75L1214.95 20.048H1216.44V22.064H1218.68V23.488H1216.44V27.408C1216.44 27.8453 1216.53 28.1493 1216.71 28.32C1216.91 28.48 1217.23 28.56 1217.69 28.56H1218.6V30H1217.29ZM1223.94 30.192C1223.16 30.192 1222.47 30.0213 1221.86 29.68C1221.26 29.328 1220.79 28.8427 1220.45 28.224C1220.11 27.6053 1219.94 26.8853 1219.94 26.064C1219.94 25.232 1220.11 24.5013 1220.44 23.872C1220.78 23.2427 1221.25 22.752 1221.84 22.4C1222.45 22.048 1223.16 21.872 1223.96 21.872C1224.73 21.872 1225.41 22.048 1225.99 22.4C1226.56 22.7413 1227.01 23.2 1227.33 23.776C1227.65 24.352 1227.81 24.9867 1227.81 25.68C1227.81 25.7867 1227.81 25.904 1227.8 26.032C1227.8 26.1493 1227.79 26.2827 1227.78 26.432H1221.6C1221.66 27.2 1221.91 27.7867 1222.36 28.192C1222.81 28.5867 1223.34 28.784 1223.94 28.784C1224.42 28.784 1224.82 28.6773 1225.14 28.464C1225.47 28.24 1225.72 27.9413 1225.88 27.568H1227.57C1227.36 28.3147 1226.93 28.9387 1226.29 29.44C1225.66 29.9413 1224.88 30.192 1223.94 30.192ZM1223.94 23.264C1223.37 23.264 1222.87 23.4347 1222.44 23.776C1222 24.1067 1221.73 24.608 1221.64 25.28H1226.12C1226.08 24.6613 1225.87 24.1707 1225.46 23.808C1225.05 23.4453 1224.55 23.264 1223.94 23.264ZM1233.19 30.192C1232.42 30.192 1231.74 30.0107 1231.16 29.648C1230.57 29.2853 1230.11 28.7893 1229.78 28.16C1229.45 27.5307 1229.28 26.816 1229.28 26.016C1229.28 25.216 1229.45 24.5067 1229.78 23.888C1230.11 23.2587 1230.57 22.768 1231.16 22.416C1231.75 22.0533 1232.44 21.872 1233.2 21.872C1233.83 21.872 1234.38 21.9947 1234.85 22.24C1235.33 22.4853 1235.71 22.832 1235.97 23.28V18.48H1237.67V30H1236.15L1235.97 28.768C1235.72 29.1413 1235.36 29.472 1234.92 29.76C1234.47 30.048 1233.89 30.192 1233.19 30.192ZM1233.49 28.72C1234.22 28.72 1234.81 28.4693 1235.27 27.968C1235.74 27.4667 1235.97 26.8213 1235.97 26.032C1235.97 25.232 1235.74 24.5867 1235.27 24.096C1234.81 23.5947 1234.22 23.344 1233.49 23.344C1232.77 23.344 1232.17 23.5947 1231.7 24.096C1231.23 24.5867 1231 25.232 1231 26.032C1231 26.5547 1231.1 27.0187 1231.32 27.424C1231.53 27.8293 1231.82 28.1493 1232.2 28.384C1232.58 28.608 1233.01 28.72 1233.49 28.72ZM1243.9 30V18.8H1250.93V20.176H1245.6V23.712H1250.01V25.072H1245.6V30H1243.9ZM1252.53 30V22.064H1254.05L1254.19 23.568C1254.47 23.0453 1254.85 22.6347 1255.34 22.336C1255.84 22.0267 1256.45 21.872 1257.15 21.872V23.648H1256.69C1256.22 23.648 1255.79 23.728 1255.42 23.888C1255.06 24.0373 1254.77 24.2987 1254.54 24.672C1254.33 25.0347 1254.22 25.5413 1254.22 26.192V30H1252.53ZM1262.1 30.192C1261.32 30.192 1260.62 30.0213 1260.02 29.68C1259.42 29.328 1258.95 28.8427 1258.61 28.224C1258.27 27.6053 1258.1 26.8853 1258.1 26.064C1258.1 25.232 1258.26 24.5013 1258.59 23.872C1258.93 23.2427 1259.4 22.752 1260 22.4C1260.61 22.048 1261.31 21.872 1262.11 21.872C1262.89 21.872 1263.57 22.048 1264.14 22.4C1264.72 22.7413 1265.17 23.2 1265.49 23.776C1265.81 24.352 1265.97 24.9867 1265.97 25.68C1265.97 25.7867 1265.96 25.904 1265.95 26.032C1265.95 26.1493 1265.95 26.2827 1265.94 26.432H1259.76C1259.81 27.2 1260.06 27.7867 1260.51 28.192C1260.97 28.5867 1261.5 28.784 1262.1 28.784C1262.58 28.784 1262.98 28.6773 1263.3 28.464C1263.63 28.24 1263.87 27.9413 1264.03 27.568H1265.73C1265.52 28.3147 1265.09 28.9387 1264.45 29.44C1263.82 29.9413 1263.04 30.192 1262.1 30.192ZM1262.1 23.264C1261.53 23.264 1261.03 23.4347 1260.59 23.776C1260.16 24.1067 1259.89 24.608 1259.79 25.28H1264.27C1264.24 24.6613 1264.02 24.1707 1263.62 23.808C1263.21 23.4453 1262.7 23.264 1262.1 23.264ZM1271.44 30.192C1270.66 30.192 1269.97 30.0213 1269.36 29.68C1268.76 29.328 1268.29 28.8427 1267.95 28.224C1267.61 27.6053 1267.44 26.8853 1267.44 26.064C1267.44 25.232 1267.61 24.5013 1267.94 23.872C1268.28 23.2427 1268.75 22.752 1269.34 22.4C1269.95 22.048 1270.66 21.872 1271.46 21.872C1272.23 21.872 1272.91 22.048 1273.49 22.4C1274.06 22.7413 1274.51 23.2 1274.83 23.776C1275.15 24.352 1275.31 24.9867 1275.31 25.68C1275.31 25.7867 1275.31 25.904 1275.3 26.032C1275.3 26.1493 1275.29 26.2827 1275.28 26.432H1269.1C1269.16 27.2 1269.41 27.7867 1269.86 28.192C1270.31 28.5867 1270.84 28.784 1271.44 28.784C1271.92 28.784 1272.32 28.6773 1272.64 28.464C1272.97 28.24 1273.22 27.9413 1273.38 27.568H1275.07C1274.86 28.3147 1274.43 28.9387 1273.79 29.44C1273.16 29.9413 1272.38 30.192 1271.44 30.192ZM1271.44 23.264C1270.87 23.264 1270.37 23.4347 1269.94 23.776C1269.5 24.1067 1269.23 24.608 1269.14 25.28H1273.62C1273.58 24.6613 1273.37 24.1707 1272.96 23.808C1272.55 23.4453 1272.05 23.264 1271.44 23.264Z" fill="white"/>
</g>
</g>
<mask id="path-5-outside-1_5805_1812" maskUnits="userSpaceOnUse" x="10" y="15" width="126" height="34" fill="black">
<rect fill="white" x="10" y="15" width="126" height="34"/>
<path d="M11.272 40V17.6H19.112C20.8613 17.6 22.312 17.8987 23.464 18.496C24.616 19.072 25.4693 19.872 26.024 20.896C26.6 21.8987 26.888 23.04 26.888 24.32C26.888 25.536 26.6107 26.656 26.056 27.68C25.5227 28.6827 24.68 29.4827 23.528 30.08C22.376 30.6773 20.904 30.976 19.112 30.976H14.664V40H11.272ZM14.664 28.192H18.952C20.552 28.192 21.6933 27.8507 22.376 27.168C23.08 26.464 23.432 25.5147 23.432 24.32C23.432 23.0827 23.08 22.1227 22.376 21.44C21.6933 20.736 20.552 20.384 18.952 20.384H14.664V28.192ZM36.6618 40.384C35.1471 40.384 33.7818 40.0427 32.5658 39.36C31.3711 38.656 30.4218 37.6853 29.7178 36.448C29.0138 35.1893 28.6618 33.728 28.6618 32.064C28.6618 30.4 29.0138 28.9493 29.7178 27.712C30.4431 26.4533 31.4138 25.4827 32.6298 24.8C33.8458 24.096 35.2004 23.744 36.6938 23.744C38.2084 23.744 39.5631 24.096 40.7578 24.8C41.9738 25.4827 42.9338 26.4533 43.6378 27.712C44.3631 28.9493 44.7257 30.4 44.7257 32.064C44.7257 33.728 44.3631 35.1893 43.6378 36.448C42.9338 37.6853 41.9738 38.656 40.7578 39.36C39.5418 40.0427 38.1764 40.384 36.6618 40.384ZM36.6618 37.472C37.4724 37.472 38.2191 37.2693 38.9018 36.864C39.6058 36.4587 40.1711 35.8613 40.5978 35.072C41.0244 34.2613 41.2378 33.2587 41.2378 32.064C41.2378 30.8693 41.0244 29.8773 40.5978 29.088C40.1924 28.2773 39.6378 27.6693 38.9338 27.264C38.2511 26.8587 37.5044 26.656 36.6938 26.656C35.8831 26.656 35.1258 26.8587 34.4218 27.264C33.7391 27.6693 33.1844 28.2773 32.7578 29.088C32.3311 29.8773 32.1178 30.8693 32.1178 32.064C32.1178 33.2587 32.3311 34.2613 32.7578 35.072C33.1844 35.8613 33.7391 36.4587 34.4218 36.864C35.1044 37.2693 35.8511 37.472 36.6618 37.472ZM48.394 40V16.96H51.786V40H48.394ZM57.9375 47.04L61.7455 38.688H60.8175L54.5455 24.128H58.2255L63.0895 35.872L68.1775 24.128H71.7615L61.5215 47.04H57.9375ZM84.4063 40.384C82.2943 40.384 80.4489 39.904 78.8703 38.944C77.2916 37.984 76.0649 36.64 75.1903 34.912C74.3156 33.184 73.8783 31.168 73.8783 28.864C73.8783 26.5813 74.3263 24.5653 75.2223 22.816C76.1183 21.0667 77.3876 19.7013 79.0303 18.72C80.6943 17.7173 82.6569 17.216 84.9183 17.216C87.4783 17.216 89.6116 17.8347 91.3183 19.072C93.0249 20.3093 94.1343 22.016 94.6463 24.192H90.8063C90.4649 22.9973 89.7929 22.0587 88.7903 21.376C87.7876 20.6933 86.4969 20.352 84.9183 20.352C82.5716 20.352 80.7263 21.1093 79.3823 22.624C78.0383 24.1387 77.3663 26.2293 77.3663 28.896C77.3663 31.5627 78.0276 33.6427 79.3503 35.136C80.6729 36.6293 82.4329 37.376 84.6303 37.376C86.8489 37.376 88.5129 36.7467 89.6223 35.488C90.7529 34.2293 91.4143 32.5547 91.6063 30.464H85.5263V27.84H95.0303V40H91.9263L91.6383 36.704C90.8916 37.8773 89.9529 38.784 88.8223 39.424C87.6916 40.064 86.2196 40.384 84.4063 40.384ZM99.019 40V16.96H102.411V40H99.019ZM114.131 40.384C112.616 40.384 111.251 40.0427 110.035 39.36C108.84 38.656 107.891 37.6853 107.187 36.448C106.483 35.1893 106.131 33.728 106.131 32.064C106.131 30.4 106.483 28.9493 107.187 27.712C107.912 26.4533 108.883 25.4827 110.099 24.8C111.315 24.096 112.669 23.744 114.163 23.744C115.677 23.744 117.032 24.096 118.227 24.8C119.443 25.4827 120.403 26.4533 121.107 27.712C121.832 28.9493 122.194 30.4 122.194 32.064C122.194 33.728 121.832 35.1893 121.107 36.448C120.403 37.6853 119.443 38.656 118.227 39.36C117.011 40.0427 115.645 40.384 114.131 40.384ZM114.131 37.472C114.941 37.472 115.688 37.2693 116.371 36.864C117.075 36.4587 117.64 35.8613 118.067 35.072C118.493 34.2613 118.707 33.2587 118.707 32.064C118.707 30.8693 118.493 29.8773 118.067 29.088C117.661 28.2773 117.107 27.6693 116.403 27.264C115.72 26.8587 114.973 26.656 114.163 26.656C113.352 26.656 112.595 26.8587 111.891 27.264C111.208 27.6693 110.653 28.2773 110.227 29.088C109.8 29.8773 109.587 30.8693 109.587 32.064C109.587 33.2587 109.8 34.2613 110.227 35.072C110.653 35.8613 111.208 36.4587 111.891 36.864C112.573 37.2693 113.32 37.472 114.131 37.472ZM131.894 40C130.336 40 129.099 39.6267 128.182 38.88C127.264 38.112 126.806 36.7573 126.806 34.816V26.976H124.086V24.128H126.806L127.222 20.096H130.198V24.128H134.678V26.976H130.198V34.816C130.198 35.6907 130.379 36.2987 130.742 36.64C131.126 36.96 131.776 37.12 132.694 37.12H134.518V40H131.894Z"/>
</mask>
<path d="M11.272 40V17.6H19.112C20.8613 17.6 22.312 17.8987 23.464 18.496C24.616 19.072 25.4693 19.872 26.024 20.896C26.6 21.8987 26.888 23.04 26.888 24.32C26.888 25.536 26.6107 26.656 26.056 27.68C25.5227 28.6827 24.68 29.4827 23.528 30.08C22.376 30.6773 20.904 30.976 19.112 30.976H14.664V40H11.272ZM14.664 28.192H18.952C20.552 28.192 21.6933 27.8507 22.376 27.168C23.08 26.464 23.432 25.5147 23.432 24.32C23.432 23.0827 23.08 22.1227 22.376 21.44C21.6933 20.736 20.552 20.384 18.952 20.384H14.664V28.192ZM36.6618 40.384C35.1471 40.384 33.7818 40.0427 32.5658 39.36C31.3711 38.656 30.4218 37.6853 29.7178 36.448C29.0138 35.1893 28.6618 33.728 28.6618 32.064C28.6618 30.4 29.0138 28.9493 29.7178 27.712C30.4431 26.4533 31.4138 25.4827 32.6298 24.8C33.8458 24.096 35.2004 23.744 36.6938 23.744C38.2084 23.744 39.5631 24.096 40.7578 24.8C41.9738 25.4827 42.9338 26.4533 43.6378 27.712C44.3631 28.9493 44.7257 30.4 44.7257 32.064C44.7257 33.728 44.3631 35.1893 43.6378 36.448C42.9338 37.6853 41.9738 38.656 40.7578 39.36C39.5418 40.0427 38.1764 40.384 36.6618 40.384ZM36.6618 37.472C37.4724 37.472 38.2191 37.2693 38.9018 36.864C39.6058 36.4587 40.1711 35.8613 40.5978 35.072C41.0244 34.2613 41.2378 33.2587 41.2378 32.064C41.2378 30.8693 41.0244 29.8773 40.5978 29.088C40.1924 28.2773 39.6378 27.6693 38.9338 27.264C38.2511 26.8587 37.5044 26.656 36.6938 26.656C35.8831 26.656 35.1258 26.8587 34.4218 27.264C33.7391 27.6693 33.1844 28.2773 32.7578 29.088C32.3311 29.8773 32.1178 30.8693 32.1178 32.064C32.1178 33.2587 32.3311 34.2613 32.7578 35.072C33.1844 35.8613 33.7391 36.4587 34.4218 36.864C35.1044 37.2693 35.8511 37.472 36.6618 37.472ZM48.394 40V16.96H51.786V40H48.394ZM57.9375 47.04L61.7455 38.688H60.8175L54.5455 24.128H58.2255L63.0895 35.872L68.1775 24.128H71.7615L61.5215 47.04H57.9375ZM84.4063 40.384C82.2943 40.384 80.4489 39.904 78.8703 38.944C77.2916 37.984 76.0649 36.64 75.1903 34.912C74.3156 33.184 73.8783 31.168 73.8783 28.864C73.8783 26.5813 74.3263 24.5653 75.2223 22.816C76.1183 21.0667 77.3876 19.7013 79.0303 18.72C80.6943 17.7173 82.6569 17.216 84.9183 17.216C87.4783 17.216 89.6116 17.8347 91.3183 19.072C93.0249 20.3093 94.1343 22.016 94.6463 24.192H90.8063C90.4649 22.9973 89.7929 22.0587 88.7903 21.376C87.7876 20.6933 86.4969 20.352 84.9183 20.352C82.5716 20.352 80.7263 21.1093 79.3823 22.624C78.0383 24.1387 77.3663 26.2293 77.3663 28.896C77.3663 31.5627 78.0276 33.6427 79.3503 35.136C80.6729 36.6293 82.4329 37.376 84.6303 37.376C86.8489 37.376 88.5129 36.7467 89.6223 35.488C90.7529 34.2293 91.4143 32.5547 91.6063 30.464H85.5263V27.84H95.0303V40H91.9263L91.6383 36.704C90.8916 37.8773 89.9529 38.784 88.8223 39.424C87.6916 40.064 86.2196 40.384 84.4063 40.384ZM99.019 40V16.96H102.411V40H99.019ZM114.131 40.384C112.616 40.384 111.251 40.0427 110.035 39.36C108.84 38.656 107.891 37.6853 107.187 36.448C106.483 35.1893 106.131 33.728 106.131 32.064C106.131 30.4 106.483 28.9493 107.187 27.712C107.912 26.4533 108.883 25.4827 110.099 24.8C111.315 24.096 112.669 23.744 114.163 23.744C115.677 23.744 117.032 24.096 118.227 24.8C119.443 25.4827 120.403 26.4533 121.107 27.712C121.832 28.9493 122.194 30.4 122.194 32.064C122.194 33.728 121.832 35.1893 121.107 36.448C120.403 37.6853 119.443 38.656 118.227 39.36C117.011 40.0427 115.645 40.384 114.131 40.384ZM114.131 37.472C114.941 37.472 115.688 37.2693 116.371 36.864C117.075 36.4587 117.64 35.8613 118.067 35.072C118.493 34.2613 118.707 33.2587 118.707 32.064C118.707 30.8693 118.493 29.8773 118.067 29.088C117.661 28.2773 117.107 27.6693 116.403 27.264C115.72 26.8587 114.973 26.656 114.163 26.656C113.352 26.656 112.595 26.8587 111.891 27.264C111.208 27.6693 110.653 28.2773 110.227 29.088C109.8 29.8773 109.587 30.8693 109.587 32.064C109.587 33.2587 109.8 34.2613 110.227 35.072C110.653 35.8613 111.208 36.4587 111.891 36.864C112.573 37.2693 113.32 37.472 114.131 37.472ZM131.894 40C130.336 40 129.099 39.6267 128.182 38.88C127.264 38.112 126.806 36.7573 126.806 34.816V26.976H124.086V24.128H126.806L127.222 20.096H130.198V24.128H134.678V26.976H130.198V34.816C130.198 35.6907 130.379 36.2987 130.742 36.64C131.126 36.96 131.776 37.12 132.694 37.12H134.518V40H131.894Z" fill="black"/>
<path d="M11.272 40H10.272V41H11.272V40ZM11.272 17.6V16.6H10.272V17.6H11.272ZM23.464 18.496L23.0037 19.3838L23.0102 19.3871L23.0168 19.3904L23.464 18.496ZM26.024 20.896L25.1447 21.3723L25.1507 21.3833L25.1569 21.3941L26.024 20.896ZM26.056 27.68L25.1767 27.2037L25.1731 27.2104L26.056 27.68ZM23.528 30.08L23.9883 30.9678H23.9883L23.528 30.08ZM14.664 30.976V29.976H13.664V30.976H14.664ZM14.664 40V41H15.664V40H14.664ZM14.664 28.192H13.664V29.192H14.664V28.192ZM22.376 27.168L21.6689 26.4609L22.376 27.168ZM22.376 21.44L21.6581 22.1361L21.6688 22.1472L21.6799 22.1579L22.376 21.44ZM14.664 20.384V19.384H13.664V20.384H14.664ZM12.272 40V17.6H10.272V40H12.272ZM11.272 18.6H19.112V16.6H11.272V18.6ZM19.112 18.6C20.7544 18.6 22.0347 18.8813 23.0037 19.3838L23.9243 17.6082C22.5893 16.916 20.9683 16.6 19.112 16.6V18.6ZM23.0168 19.3904C24.0056 19.8848 24.6981 20.5477 25.1447 21.3723L26.9033 20.4197C26.2406 19.1963 25.2264 18.2592 23.9112 17.6016L23.0168 19.3904ZM25.1569 21.3941C25.6367 22.2294 25.888 23.1956 25.888 24.32H27.888C27.888 22.8844 27.5633 21.5679 26.8911 20.3979L25.1569 21.3941ZM25.888 24.32C25.888 25.3773 25.6486 26.3325 25.1767 27.2037L26.9353 28.1563C27.5727 26.9795 27.888 25.6947 27.888 24.32H25.888ZM25.1731 27.2104C24.7481 28.0094 24.0662 28.6745 23.0677 29.1922L23.9883 30.9678C25.2938 30.2909 26.2972 29.356 26.9389 28.1496L25.1731 27.2104ZM23.0677 29.1922C22.1016 29.6932 20.8016 29.976 19.112 29.976V31.976C21.0064 31.976 22.6504 31.6615 23.9883 30.9678L23.0677 29.1922ZM19.112 29.976H14.664V31.976H19.112V29.976ZM13.664 30.976V40H15.664V30.976H13.664ZM14.664 39H11.272V41H14.664V39ZM14.664 29.192H18.952V27.192H14.664V29.192ZM18.952 29.192C20.652 29.192 22.1217 28.8365 23.0831 27.8751L21.6689 26.4609C21.2649 26.8648 20.452 27.192 18.952 27.192V29.192ZM23.0831 27.8751C24.0113 26.9469 24.432 25.7231 24.432 24.32H22.432C22.432 25.3062 22.1487 25.9811 21.6689 26.4609L23.0831 27.8751ZM24.432 24.32C24.432 22.887 24.0183 21.6396 23.0721 20.7221L21.6799 22.1579C22.1417 22.6058 22.432 23.2783 22.432 24.32H24.432ZM23.0939 20.7439C22.1332 19.7532 20.6587 19.384 18.952 19.384V21.384C20.4453 21.384 21.2534 21.7188 21.6581 22.1361L23.0939 20.7439ZM18.952 19.384H14.664V21.384H18.952V19.384ZM13.664 20.384V28.192H15.664V20.384H13.664ZM32.5658 39.36L32.0581 40.2215L32.0671 40.2269L32.0762 40.232L32.5658 39.36ZM29.7178 36.448L28.845 36.9362L28.8486 36.9425L29.7178 36.448ZM29.7178 27.712L28.8513 27.2127L28.8486 27.2175L29.7178 27.712ZM32.6297 24.8L33.1193 25.6721L33.1308 25.6654L32.6297 24.8ZM40.7578 24.8L40.2501 25.6615L40.2591 25.6669L40.2682 25.672L40.7578 24.8ZM43.6377 27.712L42.765 28.2002L42.7699 28.209L42.7751 28.2177L43.6377 27.712ZM43.6377 36.448L42.7713 35.9487L42.7686 35.9535L43.6377 36.448ZM40.7578 39.36L41.2473 40.2321L41.2588 40.2254L40.7578 39.36ZM38.9018 36.864L38.4027 35.9973L38.3912 36.0041L38.9018 36.864ZM40.5978 35.072L41.4775 35.5475L41.4827 35.5377L40.5978 35.072ZM40.5978 29.088L39.7033 29.5352L39.7105 29.5495L39.718 29.5635L40.5978 29.088ZM38.9338 27.264L38.4232 28.1239L38.4348 28.1306L38.9338 27.264ZM34.4218 27.264L33.9227 26.3973L33.9112 26.4041L34.4218 27.264ZM32.7577 29.088L33.6375 29.5635L33.6427 29.5537L32.7577 29.088ZM32.7577 35.072L31.8728 35.5378L31.878 35.5475L32.7577 35.072ZM34.4218 36.864L34.9323 36.0041L34.4218 36.864ZM36.6618 39.384C35.3033 39.384 34.1091 39.0796 33.0553 38.488L32.0762 40.232C33.4544 41.0057 34.9908 41.384 36.6618 41.384V39.384ZM33.0734 38.4985C32.0334 37.8856 31.2069 37.0432 30.5869 35.9535L28.8486 36.9425C29.6366 38.3274 30.7088 39.4264 32.0581 40.2215L33.0734 38.4985ZM30.5905 35.9598C29.982 34.8719 29.6618 33.5836 29.6618 32.064H27.6618C27.6618 33.8724 28.0455 35.5067 28.845 36.9362L30.5905 35.9598ZM29.6618 32.064C29.6618 30.5439 29.9822 29.2694 30.5869 28.2065L28.8486 27.2175C28.0453 28.6292 27.6618 30.2561 27.6618 32.064H29.6618ZM30.5842 28.2113C31.2236 27.1017 32.0669 26.2628 33.1193 25.672L32.1402 23.928C30.7606 24.7025 29.6626 25.805 28.8513 27.2127L30.5842 28.2113ZM33.1308 25.6654C34.1849 25.0551 35.3649 24.744 36.6938 24.744V22.744C35.0359 22.744 33.5066 23.1368 32.1287 23.9346L33.1308 25.6654ZM36.6938 24.744C38.0469 24.744 39.2232 25.0564 40.2501 25.6615L41.2654 23.9385C39.9029 23.1356 38.37 22.744 36.6938 22.744V24.744ZM40.2682 25.672C41.3179 26.2613 42.1477 27.0965 42.765 28.2002L44.5105 27.2238C43.7198 25.8101 42.6296 24.7041 41.2473 23.928L40.2682 25.672ZM42.7751 28.2177C43.3969 29.2786 43.7257 30.5489 43.7257 32.064H45.7257C45.7257 30.2511 45.3292 28.6201 44.5005 27.2063L42.7751 28.2177ZM43.7257 32.064C43.7257 33.5786 43.3971 34.8628 42.7713 35.9487L44.5042 36.9473C45.3291 35.5158 45.7257 33.8774 45.7257 32.064H43.7257ZM42.7686 35.9535C42.151 37.0389 41.3172 37.8806 40.2567 38.4946L41.2588 40.2254C42.6303 39.4314 43.7165 38.3318 44.5069 36.9425L42.7686 35.9535ZM40.2682 38.488C39.2144 39.0796 38.0202 39.384 36.6618 39.384V41.384C38.3327 41.384 39.8691 41.0057 41.2473 40.232L40.2682 38.488ZM36.6618 38.472C37.6481 38.472 38.5717 38.2229 39.4123 37.7239L38.3912 36.0041C37.8664 36.3157 37.2967 36.472 36.6618 36.472V38.472ZM39.4007 37.7306C40.2819 37.2232 40.9721 36.4824 41.4775 35.5475L39.718 34.5965C39.3701 35.2403 38.9296 35.6941 38.4028 35.9974L39.4007 37.7306ZM41.4827 35.5377C42.0044 34.5465 42.2378 33.3732 42.2378 32.064H40.2378C40.2378 33.1441 40.0444 33.9762 39.7128 34.6063L41.4827 35.5377ZM42.2378 32.064C42.2378 30.7562 42.0049 29.5883 41.4775 28.6125L39.718 29.5635C40.0439 30.1664 40.2378 30.9824 40.2378 32.064H42.2378ZM41.4922 28.6408C41.0096 27.6756 40.3262 26.9118 39.4327 26.3974L38.4348 28.1306C38.9493 28.4269 39.3753 28.8791 39.7033 29.5352L41.4922 28.6408ZM39.4443 26.4041C38.6037 25.9051 37.6801 25.656 36.6938 25.656V27.656C37.3287 27.656 37.8984 27.8123 38.4232 28.1239L39.4443 26.4041ZM36.6938 25.656C35.7076 25.656 34.7782 25.9049 33.9228 26.3974L34.9207 28.1306C35.4733 27.8125 36.0586 27.656 36.6938 27.656V25.656ZM33.9112 26.4041C33.0466 26.9175 32.372 27.6738 31.8728 28.6223L33.6427 29.5537C33.9968 28.8809 34.4316 28.4211 34.9323 28.1239L33.9112 26.4041ZM31.878 28.6125C31.3506 29.5883 31.1178 30.7562 31.1178 32.064H33.1178C33.1178 30.9824 33.3116 30.1664 33.6375 29.5635L31.878 28.6125ZM31.1178 32.064C31.1178 33.3732 31.3511 34.5465 31.8728 35.5377L33.6427 34.6063C33.3111 33.9762 33.1178 33.1441 33.1178 32.064H31.1178ZM31.878 35.5475C32.3793 36.4748 33.0535 37.2146 33.9112 37.7239L34.9323 36.0041C34.4247 35.7027 33.9895 35.2479 33.6375 34.5965L31.878 35.5475ZM33.9112 37.7239C34.7518 38.2229 35.6754 38.472 36.6618 38.472V36.472C36.0268 36.472 35.4571 36.3157 34.9323 36.0041L33.9112 37.7239ZM48.394 40H47.394V41H48.394V40ZM48.394 16.96V15.96H47.394V16.96H48.394ZM51.786 16.96H52.786V15.96H51.786V16.96ZM51.786 40V41H52.786V40H51.786ZM49.394 40V16.96H47.394V40H49.394ZM48.394 17.96H51.786V15.96H48.394V17.96ZM50.786 16.96V40H52.786V16.96H50.786ZM51.786 39H48.394V41H51.786V39ZM57.9375 47.04L57.0276 46.6251L56.3825 48.04H57.9375V47.04ZM61.7455 38.688L62.6554 39.1029L63.3005 37.688H61.7455V38.688ZM60.8175 38.688L59.8991 39.0836L60.1594 39.688H60.8175V38.688ZM54.5455 24.128V23.128H53.0259L53.6271 24.5236L54.5455 24.128ZM58.2255 24.128L59.1494 23.7454L58.8937 23.128H58.2255V24.128ZM63.0895 35.872L62.1656 36.2546L63.0688 38.4353L64.0071 36.2695L63.0895 35.872ZM68.1775 24.128V23.128H67.5209L67.2599 23.7305L68.1775 24.128ZM71.7615 24.128L72.6745 24.536L73.3038 23.128H71.7615V24.128ZM61.5215 47.04V48.04H62.1699L62.4345 47.448L61.5215 47.04ZM58.8474 47.4549L62.6554 39.1029L60.8356 38.2731L57.0276 46.6251L58.8474 47.4549ZM61.7455 37.688H60.8175V39.688H61.7455V37.688ZM61.7359 38.2924L55.4639 23.7324L53.6271 24.5236L59.8991 39.0836L61.7359 38.2924ZM54.5455 25.128H58.2255V23.128H54.5455V25.128ZM57.3016 24.5106L62.1656 36.2546L64.0134 35.4894L59.1494 23.7454L57.3016 24.5106ZM64.0071 36.2695L69.0951 24.5255L67.2599 23.7305L62.1719 35.4745L64.0071 36.2695ZM68.1775 25.128H71.7615V23.128H68.1775V25.128ZM70.8485 23.72L60.6085 46.632L62.4345 47.448L72.6745 24.536L70.8485 23.72ZM61.5215 46.04H57.9375V48.04H61.5215V46.04ZM78.8702 38.944L78.3507 39.7984L78.8702 38.944ZM75.1902 34.912L76.0825 34.4604L75.1902 34.912ZM75.2223 22.816L76.1123 23.2719V23.2719L75.2223 22.816ZM79.0303 18.72L79.5431 19.5785L79.5464 19.5765L79.0303 18.72ZM91.3183 19.072L91.9052 18.2624L91.3183 19.072ZM94.6463 24.192V25.192H95.9089L95.6197 23.963L94.6463 24.192ZM90.8063 24.192L89.8447 24.4667L90.0519 25.192H90.8063V24.192ZM79.3822 22.624L78.6343 21.9603L79.3822 22.624ZM89.6223 35.488L88.8783 34.8197L88.872 34.8268L89.6223 35.488ZM91.6062 30.464L92.6021 30.5555L92.7023 29.464H91.6062V30.464ZM85.5263 30.464H84.5263V31.464H85.5263V30.464ZM85.5263 27.84V26.84H84.5263V27.84H85.5263ZM95.0303 27.84H96.0303V26.84H95.0303V27.84ZM95.0303 40V41H96.0303V40H95.0303ZM91.9263 40L90.93 40.087L91.0098 41H91.9263V40ZM91.6383 36.704L92.6345 36.617L92.3778 33.6793L90.7946 36.1671L91.6383 36.704ZM88.8223 39.424L88.3297 38.5537L88.8223 39.424ZM84.4062 39.384C82.4508 39.384 80.7905 38.9414 79.3898 38.0896L78.3507 39.7984C80.1073 40.8666 82.1377 41.384 84.4062 41.384V39.384ZM79.3898 38.0896C77.9784 37.2313 76.8772 36.0304 76.0825 34.4604L74.298 35.3636C75.2527 37.2496 76.6048 38.7367 78.3507 39.7984L79.3898 38.0896ZM76.0825 34.4604C75.2909 32.8966 74.8783 31.0406 74.8783 28.864H72.8783C72.8783 31.2954 73.3403 33.4714 74.298 35.3636L76.0825 34.4604ZM74.8783 28.864C74.8783 26.7142 75.2994 24.859 76.1123 23.2719L74.3322 22.3601C73.3531 24.2717 72.8783 26.4484 72.8783 28.864H74.8783ZM76.1123 23.2719C76.9252 21.6847 78.066 20.4609 79.5431 19.5785L78.5174 17.8615C76.7092 18.9418 75.3112 20.4487 74.3322 22.3601L76.1123 23.2719ZM79.5464 19.5765C81.0306 18.6822 82.8085 18.216 84.9183 18.216V16.216C82.5053 16.216 80.3579 16.7525 78.5141 17.8635L79.5464 19.5765ZM84.9183 18.216C87.3136 18.216 89.2292 18.7926 90.7313 19.8816L91.9052 18.2624C89.994 16.8767 87.643 16.216 84.9183 16.216V18.216ZM90.7313 19.8816C92.2312 20.9691 93.2122 22.4633 93.6728 24.421L95.6197 23.963C95.0563 21.5687 93.8186 19.6496 91.9052 18.2624L90.7313 19.8816ZM94.6463 23.192H90.8063V25.192H94.6463V23.192ZM91.7678 23.9173C91.3639 22.5036 90.5541 21.3672 89.353 20.5494L88.2275 22.2026C89.0317 22.7502 89.566 23.491 89.8447 24.4667L91.7678 23.9173ZM89.353 20.5494C88.141 19.7242 86.6377 19.352 84.9183 19.352V21.352C86.3561 21.352 87.4342 21.6625 88.2275 22.2026L89.353 20.5494ZM84.9183 19.352C82.3358 19.352 80.1989 20.1969 78.6343 21.9603L80.1302 23.2877C81.2536 22.0218 82.8074 21.352 84.9183 21.352V19.352ZM78.6343 21.9603C77.0822 23.7095 76.3662 26.0637 76.3662 28.896H78.3662C78.3662 26.3949 78.9943 24.5679 80.1302 23.2877L78.6343 21.9603ZM76.3662 28.896C76.3662 31.7236 77.0691 34.0688 78.6017 35.799L80.0988 34.473C78.986 33.2166 78.3662 31.4018 78.3662 28.896H76.3662ZM78.6017 35.799C80.1347 37.5299 82.1792 38.376 84.6302 38.376V36.376C82.6866 36.376 81.2111 35.7288 80.0988 34.473L78.6017 35.799ZM84.6302 38.376C87.0381 38.376 89.017 37.6872 90.3725 36.1492L88.872 34.8268C88.0089 35.8062 86.6597 36.376 84.6302 36.376V38.376ZM90.3662 36.1563C91.6723 34.7022 92.3952 32.808 92.6021 30.5555L90.6104 30.3725C90.4333 32.3013 89.8335 33.7564 88.8783 34.8197L90.3662 36.1563ZM91.6062 29.464H85.5263V31.464H91.6062V29.464ZM86.5263 30.464V27.84H84.5263V30.464H86.5263ZM85.5263 28.84H95.0303V26.84H85.5263V28.84ZM94.0303 27.84V40H96.0303V27.84H94.0303ZM95.0303 39H91.9263V41H95.0303V39ZM92.9225 39.913L92.6345 36.617L90.642 36.791L90.93 40.087L92.9225 39.913ZM90.7946 36.1671C90.1295 37.2123 89.3078 38.0001 88.3297 38.5537L89.3148 40.2943C90.5981 39.5679 91.6537 38.5424 92.4819 37.2409L90.7946 36.1671ZM88.3297 38.5537C87.3971 39.0816 86.1118 39.384 84.4062 39.384V41.384C86.3274 41.384 87.9861 41.0464 89.3148 40.2943L88.3297 38.5537ZM99.019 40H98.019V41H99.019V40ZM99.019 16.96V15.96H98.019V16.96H99.019ZM102.411 16.96H103.411V15.96H102.411V16.96ZM102.411 40V41H103.411V40H102.411ZM100.019 40V16.96H98.019V40H100.019ZM99.019 17.96H102.411V15.96H99.019V17.96ZM101.411 16.96V40H103.411V16.96H101.411ZM102.411 39H99.019V41H102.411V39ZM110.035 39.36L109.527 40.2215L109.536 40.2269L109.545 40.232L110.035 39.36ZM107.187 36.448L106.314 36.9362L106.317 36.9425L107.187 36.448ZM107.187 27.712L106.32 27.2127L106.317 27.2175L107.187 27.712ZM110.099 24.8L110.588 25.6721L110.6 25.6654L110.099 24.8ZM118.227 24.8L117.719 25.6615L117.728 25.6669L117.737 25.672L118.227 24.8ZM121.106 27.712L120.234 28.2002L120.239 28.209L120.244 28.2177L121.106 27.712ZM121.106 36.448L120.24 35.9487L120.237 35.9535L121.106 36.448ZM118.227 39.36L118.716 40.2321L118.728 40.2254L118.227 39.36ZM116.37 36.864L115.871 35.9973L115.86 36.0041L116.37 36.864ZM118.066 35.072L118.946 35.5475L118.951 35.5377L118.066 35.072ZM118.066 29.088L117.172 29.5352L117.179 29.5495L117.187 29.5635L118.066 29.088ZM116.402 27.264L115.892 28.1239L115.904 28.1306L116.402 27.264ZM111.891 27.264L111.391 26.3973L111.38 26.4041L111.891 27.264ZM110.227 29.088L111.106 29.5635L111.111 29.5537L110.227 29.088ZM110.227 35.072L109.342 35.5378L109.347 35.5475L110.227 35.072ZM111.891 36.864L112.401 36.0041L111.891 36.864ZM114.131 39.384C112.772 39.384 111.578 39.0796 110.524 38.488L109.545 40.232C110.923 41.0057 112.46 41.384 114.131 41.384V39.384ZM110.542 38.4985C109.502 37.8856 108.676 37.0432 108.056 35.9535L106.317 36.9425C107.105 38.3274 108.178 39.4264 109.527 40.2215L110.542 38.4985ZM108.059 35.9598C107.451 34.8719 107.131 33.5836 107.131 32.064H105.131C105.131 33.8724 105.514 35.5067 106.314 36.9362L108.059 35.9598ZM107.131 32.064C107.131 30.5439 107.451 29.2694 108.056 28.2065L106.317 27.2175C105.514 28.6292 105.131 30.2561 105.131 32.064H107.131ZM108.053 28.2113C108.692 27.1017 109.536 26.2628 110.588 25.672L109.609 23.928C108.229 24.7025 107.131 25.805 106.32 27.2127L108.053 28.2113ZM110.6 25.6654C111.654 25.0551 112.834 24.744 114.162 24.744V22.744C112.505 22.744 110.975 23.1368 109.597 23.9346L110.6 25.6654ZM114.162 24.744C115.516 24.744 116.692 25.0564 117.719 25.6615L118.734 23.9385C117.372 23.1356 115.839 22.744 114.162 22.744V24.744ZM117.737 25.672C118.787 26.2613 119.616 27.0965 120.234 28.2002L121.979 27.2238C121.189 25.8101 120.098 24.7041 118.716 23.928L117.737 25.672ZM120.244 28.2177C120.866 29.2786 121.195 30.5489 121.195 32.064H123.195C123.195 30.2511 122.798 28.6201 121.969 27.2063L120.244 28.2177ZM121.195 32.064C121.195 33.5786 120.866 34.8628 120.24 35.9487L121.973 36.9473C122.798 35.5158 123.195 33.8774 123.195 32.064H121.195ZM120.237 35.9535C119.62 37.0389 118.786 37.8806 117.725 38.4946L118.728 40.2254C120.099 39.4314 121.185 38.3318 121.976 36.9425L120.237 35.9535ZM117.737 38.488C116.683 39.0796 115.489 39.384 114.131 39.384V41.384C115.801 41.384 117.338 41.0057 118.716 40.232L117.737 38.488ZM114.131 38.472C115.117 38.472 116.04 38.2229 116.881 37.7239L115.86 36.0041C115.335 36.3157 114.765 36.472 114.131 36.472V38.472ZM116.869 37.7306C117.751 37.2232 118.441 36.4824 118.946 35.5475L117.187 34.5965C116.839 35.2403 116.398 35.6941 115.872 35.9974L116.869 37.7306ZM118.951 35.5377C119.473 34.5465 119.706 33.3732 119.706 32.064H117.706C117.706 33.1441 117.513 33.9762 117.182 34.6063L118.951 35.5377ZM119.706 32.064C119.706 30.7562 119.474 29.5883 118.946 28.6125L117.187 29.5635C117.513 30.1664 117.706 30.9824 117.706 32.064H119.706ZM118.961 28.6408C118.478 27.6756 117.795 26.9118 116.901 26.3974L115.904 28.1306C116.418 28.4269 116.844 28.8791 117.172 29.5352L118.961 28.6408ZM116.913 26.4041C116.072 25.9051 115.149 25.656 114.162 25.656V27.656C114.797 27.656 115.367 27.8123 115.892 28.1239L116.913 26.4041ZM114.162 25.656C113.176 25.656 112.247 25.9049 111.392 26.3974L112.389 28.1306C112.942 27.8125 113.527 27.656 114.162 27.656V25.656ZM111.38 26.4041C110.515 26.9175 109.841 27.6738 109.342 28.6223L111.111 29.5537C111.466 28.8809 111.9 28.4211 112.401 28.1239L111.38 26.4041ZM109.347 28.6125C108.819 29.5883 108.587 30.7562 108.587 32.064H110.587C110.587 30.9824 110.78 30.1664 111.106 29.5635L109.347 28.6125ZM108.587 32.064C108.587 33.3732 108.82 34.5465 109.342 35.5377L111.111 34.6063C110.78 33.9762 110.587 33.1441 110.587 32.064H108.587ZM109.347 35.5475C109.848 36.4748 110.522 37.2146 111.38 37.7239L112.401 36.0041C111.893 35.7027 111.458 35.2479 111.106 34.5965L109.347 35.5475ZM111.38 37.7239C112.221 38.2229 113.144 38.472 114.131 38.472V36.472C113.496 36.472 112.926 36.3157 112.401 36.0041L111.38 37.7239ZM128.182 38.88L127.54 39.6468L127.55 39.6556L128.182 38.88ZM126.806 26.976H127.806V25.976H126.806V26.976ZM124.086 26.976H123.086V27.976H124.086V26.976ZM124.086 24.128V23.128H123.086V24.128H124.086ZM126.806 24.128V25.128H127.708L127.8 24.2306L126.806 24.128ZM127.222 20.096V19.096H126.32L126.227 19.9934L127.222 20.096ZM130.198 20.096H131.198V19.096H130.198V20.096ZM130.198 24.128H129.198V25.128H130.198V24.128ZM134.678 24.128H135.678V23.128H134.678V24.128ZM134.678 26.976V27.976H135.678V26.976H134.678ZM130.198 26.976V25.976H129.198V26.976H130.198ZM130.742 36.64L130.056 37.3682L130.078 37.3889L130.102 37.4082L130.742 36.64ZM134.518 37.12H135.518V36.12H134.518V37.12ZM134.518 40V41H135.518V40H134.518ZM131.894 39C130.493 39 129.502 38.6655 128.813 38.1044L127.55 39.6556C128.696 40.5878 130.18 41 131.894 41V39ZM128.824 38.1132C128.243 37.627 127.806 36.6427 127.806 34.816H125.806C125.806 36.872 126.286 38.597 127.54 39.6468L128.824 38.1132ZM127.806 34.816V26.976H125.806V34.816H127.806ZM126.806 25.976H124.086V27.976H126.806V25.976ZM125.086 26.976V24.128H123.086V26.976H125.086ZM124.086 25.128H126.806V23.128H124.086V25.128ZM127.8 24.2306L128.216 20.1986L126.227 19.9934L125.811 24.0254L127.8 24.2306ZM127.222 21.096H130.198V19.096H127.222V21.096ZM129.198 20.096V24.128H131.198V20.096H129.198ZM130.198 25.128H134.678V23.128H130.198V25.128ZM133.678 24.128V26.976H135.678V24.128H133.678ZM134.678 25.976H130.198V27.976H134.678V25.976ZM129.198 26.976V34.816H131.198V26.976H129.198ZM129.198 34.816C129.198 35.772 129.385 36.7367 130.056 37.3682L131.427 35.9118C131.373 35.8606 131.198 35.6093 131.198 34.816H129.198ZM130.102 37.4082C130.764 37.9601 131.715 38.12 132.694 38.12V36.12C131.838 36.12 131.488 35.9599 131.382 35.8718L130.102 37.4082ZM132.694 38.12H134.518V36.12H132.694V38.12ZM133.518 37.12V40H135.518V37.12H133.518ZM134.518 39H131.894V41H134.518V39Z" fill="#9747FF" mask="url(#path-5-outside-1_5805_1812)"/>
<defs>
<clipPath id="clip0_5805_1812">
<rect width="241" height="50" fill="white" transform="translate(1055)"/>
</clipPath>
<clipPath id="clip1_5805_1812">
<rect width="167" height="50" fill="white" transform="translate(1129)"/>
</clipPath>
</defs>
</svg>
